<svg version="1.1" xmlns="http://www.w3.org/2000/svg" xmlns:xlink="http://www.w3.org/1999/xlink" width="80.22125" height="83.3304" viewBox="0,0,80.22125,83.3304"><g transform="translate(-213.79806,-136.44156)"><g data-paper-data="{&quot;isPaintingLayer&quot;:true}" fill="#9966ff" fill-rule="nonzero" stroke="none" stroke-width="0.5" stroke-linecap="butt" stroke-linejoin="miter" stroke-miterlimit="10" stroke-dasharray="" stroke-dashoffset="0" style="mix-blend-mode: normal"><path d="M265.99331,218.98629c-1.89145,1.76776 -3.78291,0 -3.78291,0l-1.55382,-1.89713c-0.52693,-1.74955 -1.23446,-3.45997 -2.10415,-5.08562c-1.19877,-3.89361 -2.98594,-8.69935 -6.8082,-11.04305c-3.7504,-2.29964 -9.60731,-0.52212 -13.43962,0.67648c-1.72655,0.54001 -3.64192,0.63157 -5.23572,1.45416c-5.32446,2.74803 -11.0184,8.37029 -14.33499,13.06563c0,0 -1.48378,2.08013 -3.70944,0.69338c-2.22567,-1.38675 -0.74189,-3.46688 -0.74189,-3.46688c6.77054,-9.41368 17.55995,-17.41603 30.00434,-18.24804c4.96998,-0.33228 9.46123,0.00399 13.05386,3.66231c3.11378,3.17072 4.96551,7.33281 6.19758,11.3934c0.94352,1.76362 1.67585,3.63053 2.26224,5.52463l0.19273,-0.2648c0,0 1.89145,1.76777 0,3.53554z"/><path d="M251.19776,200.46383c-2.65496,-0.60634 -1.99122,-3.0317 -1.99122,-3.0317l0.9647,-2.58774c2.19898,-2.51101 4.95944,-4.95635 6.3094,-7.96478c1.14148,-2.54384 1.4141,-5.42494 2.75027,-7.89531c2.04738,-3.7853 5.42894,-6.78226 6.00328,-11.08967c0,0 0.38702,-2.47487 3.09619,-2.12132c2.70916,0.35355 2.32214,2.82843 2.32214,2.82843c-0.85554,4.95214 -4.10379,8.25557 -6.50482,12.57933c-1.29705,2.33571 -1.49173,5.19002 -2.61035,7.61197c-1.61433,3.49524 -4.527,6.2457 -7.09214,9.17484l0.07126,0.67695c0,0 -0.66374,2.42536 -3.3187,1.81902z"/><path d="M268.33985,166.96109c-2.9195,-1.57569 -5.87977,-2.82099 -8.69542,-4.7746c-1.43193,-0.99353 -3.50893,-1.17268 -4.26026,-3.06886c-3.57814,-9.03037 4.35058,-17.7246 9.70984,-20.72571c6.66627,-3.73302 15.19058,-1.51424 21.63139,1.69903c1.14353,0.5705 2.48739,0.68704 3.42813,1.7202c2.6318,2.89033 2.8682,6.10261 3.72938,10.07272c-0.04567,2.15736 0.41377,4.44099 -0.13701,6.47209c-1.00765,3.71587 -3.68697,5.73602 -5.96908,7.70113c-4.24901,3.65879 -9.3752,3.5847 -14.37871,2.81764c-1.09965,0.51248 -2.21145,-0.22404 -2.21145,-0.22404c-0.10828,-0.07173 -0.21671,-0.14252 -0.32528,-0.2124c-0.05939,-0.01101 -0.11873,-0.02205 -0.17803,-0.03311l-0.05969,0.03644c0,0 -1.50625,0 -2.28381,-1.48054zM272.47735,161.41175c5.68184,0.96864 16.45219,1.69743 15.98512,-8.52207c-0.22607,-1.05861 -0.7362,-4.43842 -1.63124,-5.31561c-0.53416,-0.52351 -1.30191,-0.36986 -1.93249,-0.64724c-5.26682,-2.31677 -12.19341,-5.03035 -17.67979,-1.85212c-2.65211,1.53635 -5.51004,4.48825 -6.9539,7.86678c-0.27555,0.64476 -0.67021,1.61567 -0.31155,2.18416c0.43327,0.68676 1.3586,0.17742 1.99379,0.4823c3.59671,1.72635 7.07276,3.59421 10.53005,5.80379z"/><path d="M230.35119,186.10067c2.34667,-1.28624 3.75467,0.85749 3.75467,0.85749l0.21736,1.0906c0.42879,0.32172 0.73313,1.00394 1.28639,0.96516c0.57851,-0.04055 0.78055,-0.78704 1.21303,-1.14037c1.6717,-1.36576 3.56891,-2.48255 5.38262,-3.68763c3.22319,-2.14157 6.65399,-4.34595 9.59373,-6.76217c2.22105,-1.82552 4.03176,-4.25971 6.24173,-6.11091c1.53259,-1.28379 3.35673,-2.31462 4.63864,-3.81023c0,0 1.70958,-1.95217 3.84656,-0.39043c2.13697,1.56174 0.42739,3.51391 0.42739,3.51391c-1.48144,1.66411 -3.45807,2.90236 -5.18915,4.35149c-2.21945,1.85795 -4.03245,4.2945 -6.26637,6.13168c-3.91772,3.22193 -8.48866,5.8309 -12.72017,8.73025c-1.67784,1.14962 -4.69158,3.99821 -6.8279,4.16475c-1.45667,0.11356 -2.71615,-0.98891 -4.07423,-1.48336l-2.46295,-2.99026c0,0 -1.408,-2.14373 0.93866,-3.42997z"/><path d="M241.12159,195.06336c1.89932,-1.79987 3.86958,-0.0648 3.86958,-0.0648l0.52059,1.00133c0.50568,0.20868 0.9939,0.79503 1.51704,0.62603c0.54702,-0.17671 0.5294,-0.9455 0.84631,-1.38948c1.22496,-1.71616 2.73858,-3.24556 4.14644,-4.84035c2.50194,-2.83413 5.18644,-5.77827 7.33643,-8.81018c1.62439,-2.2907 2.67915,-5.07151 4.28551,-7.38437c1.114,-1.60394 2.58156,-3.03296 3.39317,-4.78183c0,0 1.09446,-2.29138 3.60274,-1.29157c2.50828,0.99981 1.41384,3.29118 1.41384,3.29118c-0.95626,1.95899 -2.51196,3.62455 -3.7705,5.43533c-1.61359,2.32162 -2.66991,5.10528 -4.30339,7.41028c-2.86471,4.04239 -6.53478,7.64826 -9.79438,11.45381c-1.29246,1.50893 -3.39074,4.97591 -5.40596,5.64466c-1.3741,0.45599 -2.90429,-0.30901 -4.35644,-0.46351l-3.23003,-2.30158c0,0 -1.97026,-1.73507 -0.07093,-3.53494z"/></g></g></svg>