<svg version="1.1" xmlns="http://www.w3.org/2000/svg" xmlns:xlink="http://www.w3.org/1999/xlink" width="73.28379" height="83.3304" viewBox="0,0,73.28379,83.3304"><g transform="translate(-188.08863,-136.44156)"><g data-paper-data="{&quot;isPaintingLayer&quot;:true}" fill="#9966ff" fill-rule="nonzero" stroke="none" stroke-width="0.5" stroke-linecap="butt" stroke-linejoin="miter" stroke-miterlimit="10" stroke-dasharray="" stroke-dashoffset="0" style="mix-blend-mode: normal"><path d="M212.59031,218.9863c-1.76776,-1.76777 0,-3.53554 0,-3.53554l0.18013,0.2648c0.54805,-1.8941 1.23249,-3.76101 2.11431,-5.52463c1.1515,-4.06059 2.88215,-8.22268 5.79231,-11.3934c3.3577,-3.65832 7.55526,-3.99459 12.20024,-3.66231c11.63063,0.83201 21.7145,8.83436 28.0423,18.24804c0,0 1.38675,2.08013 -0.69338,3.46688c-2.08012,1.38675 -3.46687,-0.69338 -3.46687,-0.69338c-3.09971,-4.69534 -8.42132,-10.3176 -13.3976,-13.06563c-1.48958,-0.82259 -3.2797,-0.91415 -4.89335,-1.45416c-3.58171,-1.1986 -9.05563,-2.97612 -12.56078,-0.67648c-3.57232,2.3437 -5.24262,7.14944 -6.363,11.04305c-0.81282,1.62565 -1.47409,3.33607 -1.96656,5.08562l-1.45221,1.89713c0,0 -1.76778,1.76776 -3.53554,0z" data-paper-data="{&quot;index&quot;:null}"/><path d="M227.20701,200.46385c-2.42536,0.60634 -3.0317,-1.81902 -3.0317,-1.81902l0.0651,-0.67695c-2.34331,-2.92914 -5.0041,-5.6796 -6.47882,-9.17484c-1.02188,-2.42195 -1.19973,-5.27626 -2.38461,-7.61197c-2.19339,-4.32376 -5.16074,-7.62719 -5.94229,-12.57933c0,0 -0.35355,-2.47488 2.12132,-2.82843c2.47488,-0.35355 2.82843,2.12132 2.82843,2.12132c0.52467,4.30741 3.6138,7.30437 5.48412,11.08967c1.22062,2.47037 1.46966,5.35147 2.51243,7.89531c1.23322,3.00843 3.75496,5.45377 5.76377,7.96478l0.88127,2.58774c0,0 0.60634,2.42536 -1.81902,3.0317z" data-paper-data="{&quot;index&quot;:null}"/><path d="M211.54736,166.96108c-0.71032,1.48054 -2.08631,1.48054 -2.08631,1.48054l-0.05453,-0.03644c-0.05417,0.01106 -0.10838,0.0221 -0.16263,0.03311c-0.09918,0.06988 -0.19823,0.14067 -0.29715,0.2124c0,0 -1.01566,0.73652 -2.02021,0.22404c-4.57081,0.76706 -9.25369,0.84115 -13.13525,-2.81764c-2.08476,-1.96511 -4.53237,-3.98526 -5.45288,-7.70113c-0.50315,-2.0311 -0.08344,-4.31473 -0.12516,-6.47209c0.78671,-3.97011 1.00267,-7.18239 3.40687,-10.07272c0.85939,-1.03316 2.08703,-1.1497 3.13167,-1.7202c5.88382,-3.21327 13.67095,-5.43205 19.76073,-1.69903c4.89579,3.00111 12.13885,11.69534 8.87014,20.72571c-0.68636,1.89618 -2.58374,2.07533 -3.89184,3.06886c-2.57216,1.95361 -5.27643,3.19891 -7.94345,4.7746zM207.76767,161.41174c3.15831,-2.20958 6.33375,-4.07744 9.61942,-5.80379c0.58026,-0.30488 1.42557,0.20446 1.82137,-0.4823c0.32764,-0.56849 -0.03289,-1.5394 -0.28461,-2.18416c-1.31899,-3.37853 -3.92977,-6.33043 -6.35253,-7.86678c-5.01193,-3.17823 -11.33951,-0.46465 -16.15086,1.85212c-0.57605,0.27738 -1.2774,0.12373 -1.76537,0.64724c-0.81764,0.87719 -1.28365,4.257 -1.49017,5.31561c-0.42668,10.2195 9.41226,9.49071 14.60274,8.52207z" data-paper-data="{&quot;index&quot;:null}"/><path d="M247.10828,189.53064l-2.24996,2.99026c-1.24063,0.49445 -2.39119,1.59692 -3.72189,1.48336c-1.95157,-0.16654 -4.70469,-3.01513 -6.23743,-4.16475c-3.86557,-2.89935 -8.04122,-5.50832 -11.62014,-8.73025c-2.04073,-1.83718 -3.69695,-4.27373 -5.72446,-6.13168c-1.58138,-1.44913 -3.38707,-2.68738 -4.7404,-4.35149c0,0 -1.56174,-1.95217 0.39043,-3.51391c1.95217,-1.56174 3.51391,0.39043 3.51391,0.39043c1.17105,1.49561 2.83744,2.52644 4.23749,3.81023c2.01885,1.8512 3.67297,4.28539 5.70195,6.11091c2.68551,2.41622 5.81962,4.6206 8.76407,6.76217c1.65687,1.20508 3.39001,2.32187 4.91714,3.68763c0.39508,0.35333 0.57965,1.09982 1.10813,1.14037c0.50541,0.03878 0.78343,-0.64344 1.17514,-0.96516l0.19856,-1.0906c0,0 1.28624,-2.14373 3.42997,-0.85749c2.14373,1.28624 0.85749,3.42997 0.85749,3.42997z" data-paper-data="{&quot;index&quot;:null}"/><path d="M236.4118,195.06337c1.73507,1.79987 -0.0648,3.53494 -0.0648,3.53494l-2.9507,2.30158c-1.32657,0.1545 -2.72443,0.9195 -3.9797,0.46351c-1.84095,-0.66875 -3.75777,-4.13573 -4.93846,-5.64466c-2.97771,-3.80555 -6.3304,-7.41142 -8.94737,-11.45381c-1.49222,-2.305 -2.45719,-5.08866 -3.93124,-7.41028c-1.1497,-1.81078 -2.57087,-3.47634 -3.44443,-5.43533c0,0 -0.9998,-2.29137 1.29157,-3.29118c2.29137,-0.99981 3.29118,1.29157 3.29118,1.29157c0.74142,1.74887 2.08207,3.17789 3.09973,4.78183c1.46744,2.31286 2.43099,5.09367 3.9149,7.38437c1.96406,3.03191 4.41641,5.97605 6.70198,8.81018c1.28611,1.59479 2.66883,3.12419 3.78786,4.84035c0.2895,0.44398 0.27341,1.21277 0.77312,1.38948c0.4779,0.169 0.9239,-0.41735 1.38585,-0.62603l0.47557,-1.00133c0,0 1.79987,-1.73507 3.53494,0.0648z" data-paper-data="{&quot;index&quot;:null}"/></g></g></svg>