<svg version="1.1" xmlns="http://www.w3.org/2000/svg" xmlns:xlink="http://www.w3.org/1999/xlink" width="48.71687" height="51.54937" viewBox="0,0,48.71687,51.54937"><g transform="translate(-211.79237,-168.2226)"><g data-paper-data="{&quot;isPaintingLayer&quot;:true}" fill="#9966ff" fill-rule="nonzero" stroke="none" stroke-width="0.5" stroke-linecap="butt" stroke-linejoin="miter" stroke-miterlimit="10" stroke-dasharray="" stroke-dashoffset="0" style="mix-blend-mode: normal"><path d="M212.57804,218.98628c-1.76777,-1.76776 0,-3.53553 0,-3.53553l-0.06021,0.24165c0.50539,-0.9674 1.01077,-1.93479 1.51616,-2.90218c4.26888,-3.47892 6.60891,-10.12469 12.11143,-12.2054c2.36008,-0.89243 7.28615,-0.16271 9.82896,-0.14932c1.9579,0.01031 3.86705,-0.98943 5.8171,-0.81401c4.3564,0.39188 8.22708,4.01403 11.04985,6.85137c3.1017,3.11771 5.96378,4.31235 7.54141,8.73084c0,0 0.79057,2.37171 -1.58114,3.16228c-2.37171,0.79057 -3.16228,-1.58114 -3.16228,-1.58114c-1.01771,-3.43003 -3.90728,-4.36188 -6.33352,-6.77644c-1.1448,-1.13929 -2.16524,-2.47759 -3.56791,-3.27827c-1.34922,-0.77017 -2.60291,-2.02908 -4.1542,-2.11295c-0.698,-0.03774 -1.25247,0.68514 -1.94417,0.78605c-1.20897,0.17637 -2.4434,0.02659 -3.66515,0.03228c-2.04041,0.0095 -4.08182,0.06263 -6.12129,0c-0.67005,-0.02058 -1.38239,-0.39646 -2.00554,-0.14932c-0.73308,0.29073 -1.12185,1.11039 -1.7184,1.62621c-3.16171,2.73382 -4.95589,6.4733 -8.20682,9.02122c-0.31079,0.66496 -0.62157,1.32991 -0.93236,1.99486l-0.87639,1.05782c0,0 -1.76776,1.76777 -3.53553,0z" data-paper-data="{&quot;index&quot;:null}"/><path d="M237.57906,203.07384c-2.70257,0 -2.70257,-2.26677 -2.70257,-2.26677v-1.48005c0,-4.3734 -0.2803,-8.49666 0.963,-12.76025c0,0 0.65548,-2.19909 3.27736,-1.64932c2.62188,0.54977 1.96641,2.74886 1.96641,2.74886c-1.17659,3.84717 -0.80162,7.69691 -0.80162,11.66071v1.48005c0,0 0,2.26677 -2.70257,2.26677z" data-paper-data="{&quot;index&quot;:null}"/><path d="M233.78847,186.36254c-3.85191,1.00784 -8.58991,1.26815 -11.28923,-2.10759c-0.82066,-1.02631 -0.56702,-2.42532 -0.85053,-3.63799c0.02018,-2.50246 -0.41838,-4.40294 1.36122,-6.63741c4.84767,-6.08672 17.14942,-7.21716 24.28629,-4.0044c1.42755,0.64264 5.58616,3.92187 6.01429,4.80348c1.76902,3.64279 -1.58434,9.64901 -5.41112,11.63491c-3.17787,1.64914 -7.30713,1.03897 -10.82043,1.46692c0,0 -2.37168,0.28418 -2.96804,-1.5555zM238.87149,183.19787c1.35522,-0.06197 2.71556,-0.08305 4.06773,-0.17624c2.40762,-0.16593 6.70308,-4.18089 5.3776,-6.50807c-0.36892,-0.64772 -1.29675,-0.93719 -1.95247,-1.39851c-5.02889,-3.53802 -14.68104,-3.15308 -18.9207,1.45756c-0.70864,0.77064 -0.40935,3.20694 -0.40339,3.72299c0.06024,2.92406 2.84455,2.46256 5.50636,1.6547l3.32679,-0.40787c0,0 2.45656,-0.29435 2.99807,1.65542z" data-paper-data="{&quot;index&quot;:null}"/><path d="M225.17115,205.61725c0,-2.26677 2.70257,-2.26677 2.70257,-2.26677l2.65517,0.02927c4.89225,-1.40567 10.82353,-2.06145 15.97404,-2.60132c2.08957,-0.21902 4.19046,-0.44761 6.22505,-0.90314c0.54512,-0.12204 1.4386,0.08772 1.63895,-0.35466c0.17008,-0.37554 -0.89871,-0.37915 -1.15229,-0.71994c-0.60692,-0.8157 -0.93378,-1.75693 -1.3558,-2.65092c-0.29889,-0.63316 -0.28576,-1.40493 -0.80572,-1.92795c-1.66906,-1.67882 -8.33732,-1.77644 -10.68727,-2.33564c0,0 -2.59859,-0.62273 -1.85614,-2.80228c0.74245,-2.17955 3.34104,-1.55682 3.34104,-1.55682c3.95548,0.95534 10.11878,0.87409 13.13499,3.58459c0.30633,0.27528 2.80942,5.05717 3.13231,5.78154c0.54637,1.22574 2.02462,2.48947 1.49463,3.72024c-0.68405,1.58856 -2.82172,2.46093 -4.53719,3.34548c-1.87297,0.96576 -5.88243,1.10623 -7.89185,1.31695c-5.14666,0.53971 -10.8679,1.23668 -15.78897,2.57888l-3.52098,0.02927c0,0 -2.70257,0 -2.70257,-2.26677z" data-paper-data="{&quot;index&quot;:null}"/><path d="M255.2584,201.87044c0,0 2.70257,0 2.70257,2.26677c0,2.26677 -2.70257,2.26677 -2.70257,2.26677l-3.52097,-0.02927c-4.92107,-1.3422 -10.64231,-2.03916 -15.78898,-2.57888c-2.00942,-0.21073 -6.01888,-0.3512 -7.89184,-1.31695c-1.71548,-0.88454 -3.85314,-1.75691 -4.53719,-3.34548c-0.52999,-1.23078 0.94826,-2.49451 1.49462,-3.72023c0.32289,-0.72437 2.82598,-5.50625 3.13232,-5.78154c3.01621,-2.7105 9.1795,-2.62926 13.13499,-3.5846c0,0 2.59859,-0.62273 3.34104,1.55682c0.74245,2.17955 -1.85614,2.80228 -1.85614,2.80228c-2.34995,0.5592 -9.01822,0.65682 -10.68727,2.33564c-0.51997,0.52302 -0.50683,1.2948 -0.80572,1.92796c-0.42202,0.89399 -0.74888,1.83522 -1.3558,2.65092c-0.25357,0.3408 -1.32236,0.3444 -1.15229,0.71994c0.20035,0.44238 1.09384,0.23262 1.63896,0.35466c2.03459,0.45553 4.13547,0.68411 6.22505,0.90314c5.15051,0.53988 11.08179,1.19564 15.97404,2.60132l2.65516,-0.02927z" data-paper-data="{&quot;index&quot;:null}"/></g></g></svg>