<svg version="1.1" xmlns="http://www.w3.org/2000/svg" xmlns:xlink="http://www.w3.org/1999/xlink" width="48.71687" height="56.03832" viewBox="0,0,48.71687,56.03832"><g transform="translate(-218.15666,-164.14174)"><g data-paper-data="{&quot;isPaintingLayer&quot;:true}" fill="#9966ff" fill-rule="nonzero" stroke="none" stroke-width="0.5" stroke-linecap="butt" stroke-linejoin="miter" stroke-miterlimit="10" stroke-dasharray="" stroke-dashoffset="0" style="mix-blend-mode: normal"><path d="M218.94234,219.39436c-1.76777,-1.76776 0,-3.53553 0,-3.53553l-0.06021,0.24165c0.50539,-0.9674 1.01077,-1.93479 1.51616,-2.90218c4.26888,-3.47892 6.60891,-10.12469 12.11143,-12.2054c2.36008,-0.89243 7.28615,-0.16271 9.82896,-0.14932c1.9579,0.01031 3.86705,-0.98943 5.8171,-0.81401c4.3564,0.39188 8.22708,4.01403 11.04985,6.85137c3.1017,3.11771 5.96378,4.31235 7.54141,8.73084c0,0 0.79057,2.37171 -1.58114,3.16228c-2.37171,0.79057 -3.16228,-1.58114 -3.16228,-1.58114c-1.01771,-3.43003 -3.90728,-4.36188 -6.33352,-6.77644c-1.1448,-1.13929 -2.16524,-2.47759 -3.56791,-3.27827c-1.34922,-0.77017 -2.60291,-2.02908 -4.1542,-2.11295c-0.698,-0.03774 -1.25247,0.68514 -1.94417,0.78605c-1.20897,0.17637 -2.4434,0.02659 -3.66515,0.03228c-2.04041,0.0095 -4.08182,0.06263 -6.12129,0c-0.67005,-0.02058 -1.38239,-0.39646 -2.00554,-0.14932c-0.73308,0.29073 -1.12185,1.11039 -1.7184,1.62621c-3.16171,2.73382 -4.95589,6.4733 -8.20682,9.02122c-0.31079,0.66496 -0.62157,1.32991 -0.93236,1.99486l-0.87639,1.05782c0,0 -1.76776,1.76777 -3.53553,0z" data-paper-data="{&quot;index&quot;:null}"/><path d="M239.89015,202.57889c-2.5,0 -2.5,-2.5 -2.5,-2.5v-1.63234c0,-4.82339 -0.25929,-9.3709 0.89082,-14.07318c0,0 0.60634,-2.42536 3.0317,-1.81902c2.42536,0.60634 1.81902,3.0317 1.81902,3.0317c-1.08839,4.24301 -0.74153,8.48887 -0.74153,12.86051v1.63234c0,0 0,2.5 -2.5,2.5z" data-paper-data="{&quot;index&quot;:null}"/><path d="M236.38369,184.14814c-3.56319,1.11153 -7.94605,1.39863 -10.44304,-2.32445c-0.75915,-1.13191 -0.52452,-2.67487 -0.78678,-4.01231c0.01867,-2.75994 -0.38702,-4.85597 1.25919,-7.32035c4.48431,-6.71299 15.86398,-7.95975 22.4659,-4.41642c1.32055,0.70876 5.16745,4.3254 5.56349,5.29772c1.63642,4.0176 -1.46559,10.64182 -5.00553,12.83205c-2.93967,1.81883 -6.75942,1.14588 -10.00938,1.61786c0,0 -2.19391,0.31342 -2.74557,-1.71555zM241.0857,180.65784c1.25364,-0.06834 2.51201,-0.09159 3.76283,-0.19437c2.22716,-0.183 6.20065,-4.61107 4.97452,-7.1777c-0.34127,-0.71437 -1.19955,-1.03362 -1.80612,-1.54241c-4.65195,-3.90206 -13.58062,-3.47751 -17.50249,1.60753c-0.65552,0.84993 -0.37866,3.53691 -0.37315,4.10606c0.05573,3.22493 2.63134,2.71594 5.09363,1.82496l3.07743,-0.44984c0,0 2.27243,-0.32464 2.77335,1.82575z" data-paper-data="{&quot;index&quot;:null}"/><path d="M228.41228,205.38401c0,-2.5 2.5,-2.5 2.5,-2.5l2.45615,0.03228c4.52555,-1.55031 10.01225,-2.27356 14.7767,-2.86898c1.93295,-0.24156 3.87636,-0.49367 5.75845,-0.99607c0.50426,-0.1346 1.33077,0.09675 1.5161,-0.39115c0.15733,-0.41418 -0.83135,-0.41816 -1.06592,-0.79402c-0.56143,-0.89963 -0.86379,-1.93771 -1.25418,-2.92368c-0.27649,-0.69831 -0.26434,-1.54949 -0.74533,-2.12632c-1.54395,-1.85156 -7.71239,-1.95922 -9.8862,-2.57596c0,0 -2.40381,-0.6868 -1.71701,-3.09061c0.6868,-2.40381 3.09061,-1.71701 3.09061,-1.71701c3.65899,1.05364 9.36032,0.96403 12.15045,3.95342c0.28337,0.30361 2.59884,5.57752 2.89753,6.37642c0.50542,1.35185 1.87286,2.74561 1.3826,4.10302c-0.63277,1.75202 -2.61021,2.71415 -4.1971,3.68971c-1.73258,1.06513 -5.44151,1.22005 -7.30031,1.45245c-4.76089,0.59525 -10.05329,1.36393 -14.6055,2.84423l-3.25706,0.03228c0,0 -2.5,0 -2.5,-2.5z" data-paper-data="{&quot;index&quot;:null}"/><path d="M256.24432,201.25168c0,0 2.5,0 2.5,2.5c0,2.5 -2.5,2.5 -2.5,2.5l-3.25705,-0.03228c-4.55221,-1.4803 -9.84461,-2.24898 -14.60551,-2.84423c-1.8588,-0.23241 -5.56773,-0.38733 -7.3003,-1.45245c-1.58689,-0.97556 -3.56432,-1.93769 -4.1971,-3.68971c-0.49026,-1.35741 0.87718,-2.75117 1.38259,-4.10301c0.29869,-0.7989 2.61416,-6.07281 2.89754,-6.37642c2.79013,-2.98939 8.49145,-2.89979 12.15045,-3.95343c0,0 2.40381,-0.6868 3.09061,1.71701c0.6868,2.40381 -1.71701,3.09061 -1.71701,3.09061c-2.17381,0.61674 -8.34225,0.7244 -9.8862,2.57596c-0.481,0.57683 -0.46884,1.42802 -0.74533,2.12633c-0.39039,0.98598 -0.69275,2.02405 -1.25418,2.92368c-0.23456,0.37587 -1.22324,0.37984 -1.06592,0.79402c0.18533,0.4879 1.01185,0.25655 1.51611,0.39115c1.88209,0.5024 3.8255,0.7545 5.75845,0.99607c4.76445,0.59543 10.25115,1.31867 14.7767,2.86898l2.45614,-0.03228z" data-paper-data="{&quot;index&quot;:null}"/></g></g></svg>