<svg version="1.1" xmlns="http://www.w3.org/2000/svg" xmlns:xlink="http://www.w3.org/1999/xlink" width="80.22125" height="83.3304" viewBox="0,0,80.22125,83.3304"><g transform="translate(-180.33501,-137.25774)"><g data-paper-data="{&quot;isPaintingLayer&quot;:true}" fill="#9966ff" fill-rule="nonzero" stroke="none" stroke-width="0.5" stroke-linecap="butt" stroke-linejoin="miter" stroke-miterlimit="10" stroke-dasharray="" stroke-dashoffset="0" style="mix-blend-mode: normal"><path d="M208.361,219.80248c-1.89145,-1.76777 0,-3.53554 0,-3.53554l0.19273,0.2648c0.58639,-1.8941 1.31872,-3.76101 2.26224,-5.52463c1.23207,-4.06059 3.0838,-8.22268 6.19758,-11.3934c3.59263,-3.65832 8.08388,-3.99459 13.05386,-3.66231c12.44439,0.83201 23.2338,8.83436 30.00434,18.24804c0,0 1.48378,2.08013 -0.74189,3.46688c-2.22566,1.38675 -3.70944,-0.69338 -3.70944,-0.69338c-3.31659,-4.69534 -9.01053,-10.3176 -14.33499,-13.06563c-1.5938,-0.82259 -3.50917,-0.91415 -5.23572,-1.45416c-3.83231,-1.1986 -9.68922,-2.97612 -13.43962,-0.67648c-3.82226,2.3437 -5.60943,7.14944 -6.8082,11.04305c-0.86969,1.62565 -1.57722,3.33607 -2.10415,5.08562l-1.55382,1.89713c0,0 -1.89146,1.76776 -3.78291,0z" data-paper-data="{&quot;index&quot;:null}"/><path d="M223.15655,201.28003c-2.65496,0.60634 -3.3187,-1.81902 -3.3187,-1.81902l0.07126,-0.67695c-2.56514,-2.92914 -5.47781,-5.6796 -7.09214,-9.17484c-1.11862,-2.42195 -1.3133,-5.27626 -2.61035,-7.61197c-2.40103,-4.32376 -5.64928,-7.62719 -6.50482,-12.57933c0,0 -0.38702,-2.47488 2.32214,-2.82843c2.70917,-0.35355 3.09619,2.12132 3.09619,2.12132c0.57434,4.30741 3.9559,7.30437 6.00328,11.08967c1.33617,2.47037 1.60879,5.35147 2.75027,7.89531c1.34996,3.00843 4.11042,5.45377 6.3094,7.96478l0.9647,2.58774c0,0 0.66374,2.42536 -1.99122,3.0317z" data-paper-data="{&quot;index&quot;:null}"/><path d="M206.01447,167.77726c-0.77756,1.48054 -2.28381,1.48054 -2.28381,1.48054l-0.05969,-0.03644c-0.0593,0.01106 -0.11864,0.0221 -0.17803,0.03311c-0.10857,0.06988 -0.217,0.14067 -0.32528,0.2124c0,0 -1.1118,0.73652 -2.21145,0.22404c-5.00351,0.76706 -10.1297,0.84115 -14.37871,-2.81764c-2.28211,-1.96511 -4.96143,-3.98526 -5.96908,-7.70113c-0.55078,-2.0311 -0.09134,-4.31473 -0.13701,-6.47209c0.86118,-3.97011 1.09758,-7.18239 3.72938,-10.07272c0.94074,-1.03316 2.2846,-1.1497 3.42813,-1.7202c6.44081,-3.21327 14.96512,-5.43205 21.63139,-1.69903c5.35926,3.00111 13.28798,11.69534 9.70984,20.72571c-0.75133,1.89618 -2.82833,2.07533 -4.26026,3.06886c-2.81565,1.95361 -5.77592,3.19891 -8.69542,4.7746zM201.87698,162.22792c3.45729,-2.20958 6.93334,-4.07744 10.53005,-5.80379c0.63519,-0.30488 1.56052,0.20446 1.99379,-0.4823c0.35866,-0.56849 -0.036,-1.5394 -0.31155,-2.18416c-1.44386,-3.37853 -4.30179,-6.33043 -6.9539,-7.86678c-5.48638,-3.17823 -12.41297,-0.46465 -17.67979,1.85212c-0.63058,0.27738 -1.39833,0.12373 -1.93249,0.64724c-0.89504,0.87719 -1.40517,4.257 -1.63124,5.31561c-0.46707,10.2195 10.30328,9.49071 15.98512,8.52207z" data-paper-data="{&quot;index&quot;:null}"/><path d="M244.00312,186.91685c2.34666,1.28624 0.93866,3.42997 0.93866,3.42997l-2.46295,2.99026c-1.35808,0.49445 -2.61756,1.59692 -4.07423,1.48336c-2.13632,-0.16654 -5.15006,-3.01513 -6.8279,-4.16475c-4.23151,-2.89935 -8.80245,-5.50832 -12.72017,-8.73025c-2.23392,-1.83718 -4.04692,-4.27373 -6.26637,-6.13168c-1.73108,-1.44913 -3.70771,-2.68738 -5.18915,-4.35149c0,0 -1.70958,-1.95217 0.42739,-3.51391c2.13698,-1.56174 3.84656,0.39043 3.84656,0.39043c1.28191,1.49561 3.10605,2.52644 4.63864,3.81023c2.20997,1.8512 4.02068,4.28539 6.24173,6.11091c2.93974,2.41622 6.37054,4.6206 9.59373,6.76217c1.81371,1.20508 3.71092,2.32187 5.38262,3.68763c0.43248,0.35333 0.63452,1.09982 1.21303,1.14037c0.55326,0.03878 0.8576,-0.64344 1.28639,-0.96516l0.21736,-1.0906c0,0 1.408,-2.14373 3.75467,-0.85749z" data-paper-data="{&quot;index&quot;:null}"/><path d="M233.23271,195.87955c1.89933,1.79987 -0.07093,3.53494 -0.07093,3.53494l-3.23003,2.30158c-1.45215,0.1545 -2.98234,0.9195 -4.35644,0.46351c-2.01522,-0.66875 -4.1135,-4.13573 -5.40596,-5.64466c-3.2596,-3.80555 -6.92967,-7.41142 -9.79438,-11.45381c-1.63348,-2.305 -2.6898,-5.08866 -4.30339,-7.41028c-1.25854,-1.81078 -2.81424,-3.47634 -3.7705,-5.43533c0,0 -1.09444,-2.29137 1.41384,-3.29118c2.50828,-0.99981 3.60274,1.29157 3.60274,1.29157c0.81161,1.74887 2.27917,3.17789 3.39317,4.78183c1.60636,2.31286 2.66112,5.09367 4.28551,7.38437c2.14999,3.03191 4.83449,5.97605 7.33643,8.81018c1.40786,1.59479 2.92148,3.12419 4.14644,4.84035c0.31691,0.44398 0.29929,1.21277 0.84631,1.38948c0.52314,0.169 1.01136,-0.41735 1.51704,-0.62603l0.52059,-1.00133c0,0 1.97026,-1.73507 3.86958,0.0648z" data-paper-data="{&quot;index&quot;:null}"/></g></g></svg>