<svg version="1.1" xmlns="http://www.w3.org/2000/svg" xmlns:xlink="http://www.w3.org/1999/xlink" width="48.71687" height="56.03832" viewBox="0,0,48.71687,56.03832"><g transform="translate(-210.11139,-164.14174)"><g data-paper-data="{&quot;isPaintingLayer&quot;:true}" fill="#9966ff" fill-rule="nonzero" stroke="none" stroke-width="0.5" stroke-linecap="butt" stroke-linejoin="miter" stroke-miterlimit="10" stroke-dasharray="" stroke-dashoffset="0" style="mix-blend-mode: normal"><path d="M258.04258,219.39438c-1.76777,1.76777 -3.53553,0 -3.53553,0l-0.87639,-1.05782c-0.31079,-0.66495 -0.62157,-1.3299 -0.93236,-1.99486c-3.25093,-2.54792 -5.04511,-6.2874 -8.20682,-9.02122c-0.59655,-0.51582 -0.98532,-1.33548 -1.7184,-1.62621c-0.62315,-0.24714 -1.33549,0.12874 -2.00554,0.14932c-2.03947,0.06263 -4.08088,0.0095 -6.12129,0c-1.22175,-0.00569 -2.45618,0.14409 -3.66515,-0.03228c-0.6917,-0.10091 -1.24617,-0.82379 -1.94417,-0.78605c-1.55129,0.08387 -2.80498,1.34278 -4.1542,2.11295c-1.40267,0.80068 -2.42311,2.13898 -3.56791,3.27827c-2.42624,2.41456 -5.31581,3.34641 -6.33352,6.77644c0,0 -0.79057,2.37171 -3.16228,1.58114c-2.37171,-0.79057 -1.58114,-3.16228 -1.58114,-3.16228c1.57763,-4.41849 4.43971,-5.61313 7.54141,-8.73084c2.82277,-2.83734 6.69345,-6.45949 11.04985,-6.85137c1.95005,-0.17542 3.8592,0.82432 5.8171,0.81401c2.54281,-0.01339 7.46888,-0.74311 9.82896,0.14932c5.50252,2.08071 7.84255,8.72648 12.11143,12.2054c0.50539,0.96739 1.01077,1.93478 1.51616,2.90218l-0.06021,-0.24165c0,0 1.76777,1.76777 0,3.53553z"/><path d="M237.09476,202.5789c-2.5,0 -2.5,-2.5 -2.5,-2.5v-1.63234c0,-4.37164 0.34686,-8.6175 -0.74153,-12.86051c0,0 -0.60634,-2.42536 1.81902,-3.0317c2.42536,-0.60634 3.0317,1.81902 3.0317,1.81902c1.15011,4.70228 0.89082,9.24979 0.89082,14.07318v1.63234c0,0 0,2.5 -2.5,2.5z"/><path d="M240.30295,184.10669c-0.55166,2.02897 -2.74557,1.71555 -2.74557,1.71555c-3.24996,-0.47198 -7.06971,0.20097 -10.00938,-1.61786c-3.53994,-2.19023 -6.64195,-8.81445 -5.00553,-12.83205c0.39604,-0.97232 4.24294,-4.58896 5.56349,-5.29772c6.60192,-3.54333 17.98159,-2.29657 22.4659,4.41642c1.64621,2.46438 1.24052,4.56041 1.25919,7.32035c-0.26226,1.33744 -0.02763,2.8804 -0.78678,4.01231c-2.49699,3.72308 -6.87985,3.43598 -10.44304,2.32445zM235.89922,180.65782c0.50092,-2.15039 2.77335,-1.82575 2.77335,-1.82575l3.07743,0.44984c2.46229,0.89098 5.0379,1.39997 5.09363,-1.82496c0.00551,-0.56915 0.28237,-3.25613 -0.37315,-4.10606c-3.92187,-5.08504 -12.85054,-5.50959 -17.50249,-1.60753c-0.60657,0.50879 -1.46485,0.82804 -1.80612,1.54241c-1.22613,2.56663 2.74736,6.9947 4.97452,7.1777c1.25082,0.10278 2.50919,0.12603 3.76283,0.19437z"/><path d="M248.57266,205.38402c0,2.5 -2.5,2.5 -2.5,2.5l-3.25706,-0.03228c-4.55221,-1.4803 -9.84461,-2.24898 -14.6055,-2.84423c-1.8588,-0.2324 -5.56773,-0.38732 -7.30031,-1.45245c-1.58689,-0.97556 -3.56433,-1.93769 -4.1971,-3.68971c-0.49026,-1.35741 0.87718,-2.75117 1.3826,-4.10302c0.29869,-0.7989 2.61416,-6.07281 2.89753,-6.37642c2.79013,-2.98939 8.49146,-2.89978 12.15045,-3.95342c0,0 2.40381,-0.6868 3.09061,1.71701c0.6868,2.40381 -1.71701,3.09061 -1.71701,3.09061c-2.17381,0.61674 -8.34225,0.7244 -9.8862,2.57596c-0.48099,0.57683 -0.46884,1.42801 -0.74533,2.12632c-0.39039,0.98597 -0.69275,2.02405 -1.25418,2.92368c-0.23457,0.37586 -1.22325,0.37984 -1.06592,0.79402c0.18533,0.4879 1.01184,0.25655 1.5161,0.39115c1.88209,0.5024 3.8255,0.75451 5.75845,0.99607c4.76445,0.59542 10.25115,1.31867 14.7767,2.86898l2.45615,-0.03228c0,0 2.5,0 2.5,2.5z"/><path d="M220.74061,201.25168l2.45614,0.03228c4.52555,-1.55031 10.01225,-2.27355 14.7767,-2.86898c1.93295,-0.24157 3.87636,-0.49367 5.75845,-0.99607c0.50426,-0.1346 1.33078,0.09675 1.51611,-0.39115c0.15732,-0.41418 -0.83136,-0.41815 -1.06592,-0.79402c-0.56143,-0.89963 -0.86379,-1.9377 -1.25418,-2.92368c-0.27649,-0.69831 -0.26433,-1.5495 -0.74533,-2.12633c-1.54395,-1.85156 -7.71239,-1.95922 -9.8862,-2.57596c0,0 -2.40381,-0.6868 -1.71701,-3.09061c0.6868,-2.40381 3.09061,-1.71701 3.09061,-1.71701c3.659,1.05364 9.36032,0.96404 12.15045,3.95343c0.28338,0.30361 2.59885,5.57752 2.89754,6.37642c0.50541,1.35184 1.87285,2.7456 1.38259,4.10301c-0.63278,1.75202 -2.61021,2.71415 -4.1971,3.68971c-1.73257,1.06512 -5.4415,1.22004 -7.3003,1.45245c-4.7609,0.59525 -10.0533,1.36393 -14.60551,2.84423l-3.25705,0.03228c0,0 -2.5,0 -2.5,-2.5c0,-2.5 2.5,-2.5 2.5,-2.5z" data-paper-data="{&quot;index&quot;:null}"/></g></g></svg>