<svg version="1.1" xmlns="http://www.w3.org/2000/svg" xmlns:xlink="http://www.w3.org/1999/xlink" width="73.28379" height="75.28512" viewBox="0,0,73.28379,75.28512"><g transform="translate(-188.08863,-144.48684)"><g data-paper-data="{&quot;isPaintingLayer&quot;:true}" fill="#9966ff" fill-rule="nonzero" stroke="none" stroke-width="0.5" stroke-linecap="butt" stroke-linejoin="miter" stroke-miterlimit="10" stroke-dasharray="" stroke-dashoffset="0" style="mix-blend-mode: normal"><path d="M212.59031,218.9863c-1.76776,-1.76777 0,-3.53554 0,-3.53554l0.18013,0.2648c0.54805,-1.8941 1.23249,-3.76101 2.11431,-5.52463c1.1515,-4.06059 2.88215,-8.22268 5.79231,-11.3934c3.3577,-3.65832 7.55526,-3.99459 12.20024,-3.66231c11.63063,0.83201 21.7145,8.83436 28.0423,18.24804c0,0 1.38675,2.08013 -0.69338,3.46688c-2.08012,1.38675 -3.46687,-0.69338 -3.46687,-0.69338c-3.09971,-4.69534 -8.42132,-10.3176 -13.3976,-13.06563c-1.48958,-0.82259 -3.2797,-0.91415 -4.89335,-1.45416c-3.58171,-1.1986 -9.05563,-2.97612 -12.56078,-0.67648c-3.57232,2.3437 -5.24262,7.14944 -6.363,11.04305c-0.81282,1.62565 -1.47409,3.33607 -1.96656,5.08562l-1.45221,1.89713c0,0 -1.76778,1.76776 -3.53554,0z" data-paper-data="{&quot;index&quot;:null}"/><path d="M227.20701,200.59279c-2.42536,0.53137 -3.0317,-1.5941 -3.0317,-1.5941l0.0651,-0.59325c-2.34331,-2.56695 -5.0041,-4.97732 -6.47882,-8.04037c-1.02188,-2.12248 -1.19973,-4.62385 -2.38461,-6.67075c-2.19339,-3.78913 -5.16074,-6.68409 -5.94229,-11.0239c0,0 -0.35355,-2.16886 2.12132,-2.4787c2.47488,-0.30983 2.82843,1.85902 2.82843,1.85902c0.52467,3.7748 3.6138,6.40119 5.48412,9.71844c1.22062,2.16491 1.46966,4.68976 2.51243,6.91906c1.23322,2.63644 3.75496,4.77941 5.76377,6.97994l0.88127,2.26777c0,0 0.60634,2.12546 -1.81902,2.65683z" data-paper-data="{&quot;index&quot;:null}"/><path d="M211.54736,171.23263c-0.71032,1.29747 -2.08631,1.29747 -2.08631,1.29747l-0.05453,-0.03193c-0.05417,0.00969 -0.10838,0.01937 -0.16263,0.02902c-0.09918,0.06124 -0.19823,0.12328 -0.29715,0.18614c0,0 -1.01566,0.64545 -2.02021,0.19634c-4.57081,0.67221 -9.25369,0.73714 -13.13525,-2.46924c-2.08476,-1.72212 -4.53237,-3.49248 -5.45288,-6.74889c-0.50315,-1.77996 -0.08344,-3.78121 -0.12516,-5.67182c0.78671,-3.47921 1.00267,-6.29429 3.40687,-8.82723c0.85939,-0.90541 2.08703,-1.00754 3.13167,-1.5075c5.88382,-2.81595 13.67095,-4.76038 19.76073,-1.48895c4.89579,2.63002 12.13885,10.24921 8.87014,18.16298c-0.68636,1.66172 -2.58374,1.81872 -3.89184,2.6894c-2.57216,1.71205 -5.27643,2.80337 -7.94345,4.18422zM207.76767,166.36947c3.15831,-1.93637 6.33375,-3.57327 9.61942,-5.08615c0.58026,-0.26718 1.42557,0.17918 1.82137,-0.42266c0.32764,-0.4982 -0.03289,-1.34905 -0.28461,-1.91409c-1.31899,-2.96078 -3.92977,-5.54767 -6.35253,-6.89405c-5.01193,-2.78524 -11.33951,-0.4072 -16.15086,1.62311c-0.57605,0.24308 -1.2774,0.10843 -1.76537,0.56721c-0.81764,0.76873 -1.28365,3.73062 -1.49017,4.65834c-0.42668,8.95586 9.41226,8.31719 14.60274,7.46832z" data-paper-data="{&quot;index&quot;:null}"/><path d="M247.10828,191.01147l-2.24996,2.62052c-1.24063,0.43331 -2.39119,1.39946 -3.72189,1.29994c-1.95157,-0.14595 -4.70469,-2.64231 -6.23743,-3.64978c-3.86557,-2.54085 -8.04122,-4.82722 -11.62014,-7.65076c-2.04073,-1.61001 -3.69695,-3.74528 -5.72446,-5.3735c-1.58138,-1.26995 -3.38707,-2.35509 -4.7404,-3.81343c0,0 -1.56174,-1.71078 0.39043,-3.07942c1.95217,-1.36863 3.51391,0.34215 3.51391,0.34215c1.17105,1.31068 2.83744,2.21405 4.23749,3.3391c2.01885,1.6223 3.67297,3.7555 5.70195,5.3553c2.68551,2.11746 5.81962,4.04926 8.76407,5.92603c1.65687,1.05607 3.39001,2.03477 4.91714,3.23166c0.39508,0.30964 0.57965,0.96383 1.10813,0.99936c0.50541,0.03398 0.78343,-0.56388 1.17514,-0.84582l0.19856,-0.95575c0,0 1.28624,-1.87866 3.42997,-0.75146c2.14373,1.1272 0.85749,3.00586 0.85749,3.00586z" data-paper-data="{&quot;index&quot;:null}"/><path d="M236.4118,195.86008c1.73507,1.57732 -0.0648,3.09785 -0.0648,3.09785l-2.9507,2.01699c-1.32657,0.1354 -2.72443,0.8058 -3.9797,0.4062c-1.84095,-0.58606 -3.75777,-3.62435 -4.93846,-4.9467c-2.97771,-3.33499 -6.3304,-6.495 -8.94737,-10.03755c-1.49222,-2.01999 -2.45719,-4.45945 -3.93124,-6.494c-1.1497,-1.58688 -2.57087,-3.04649 -3.44443,-4.76325c0,0 -0.9998,-2.00804 1.29157,-2.88423c2.29137,-0.87618 3.29118,1.13187 3.29118,1.13187c0.74142,1.53262 2.08207,2.78494 3.09973,4.19056c1.46744,2.02688 2.43099,4.46384 3.9149,6.47129c1.96406,2.65702 4.41641,5.23711 6.70198,7.7208c1.28611,1.39759 2.66883,2.73788 3.78786,4.24184c0.2895,0.38908 0.27341,1.06281 0.77312,1.21767c0.4779,0.1481 0.9239,-0.36574 1.38585,-0.54862l0.47557,-0.87752c0,0 1.79987,-1.52053 3.53494,0.05679z" data-paper-data="{&quot;index&quot;:null}"/></g></g></svg>