<svg version="1.1" xmlns="http://www.w3.org/2000/svg" xmlns:xlink="http://www.w3.org/1999/xlink" width="73.28379" height="83.3304" viewBox="0,0,73.28379,83.3304"><g transform="translate(-213.79806,-136.44156)"><g data-paper-data="{&quot;isPaintingLayer&quot;:true}" fill="#9966ff" fill-rule="nonzero" stroke="none" stroke-width="0.5" stroke-linecap="butt" stroke-linejoin="miter" stroke-miterlimit="10" stroke-dasharray="" stroke-dashoffset="0" style="mix-blend-mode: normal"><path d="M262.58017,218.98629c-1.76776,1.76776 -3.53554,0 -3.53554,0l-1.45221,-1.89713c-0.49247,-1.74955 -1.15374,-3.45997 -1.96656,-5.08562c-1.12038,-3.89361 -2.79068,-8.69935 -6.363,-11.04305c-3.50515,-2.29964 -8.97907,-0.52212 -12.56078,0.67648c-1.61365,0.54001 -3.40377,0.63157 -4.89335,1.45416c-4.97628,2.74803 -10.29789,8.37029 -13.3976,13.06563c0,0 -1.38675,2.08013 -3.46687,0.69338c-2.08013,-1.38675 -0.69338,-3.46688 -0.69338,-3.46688c6.3278,-9.41368 16.41167,-17.41603 28.0423,-18.24804c4.64498,-0.33228 8.84254,0.00399 12.20024,3.66231c2.91016,3.17072 4.64081,7.33281 5.79231,11.3934c0.88182,1.76362 1.56626,3.63053 2.11431,5.52463l0.18013,-0.2648c0,0 1.76776,1.76777 0,3.53554z"/><path d="M247.96347,200.46383c-2.42536,-0.60634 -1.81902,-3.0317 -1.81902,-3.0317l0.88127,-2.58774c2.00881,-2.51101 4.53055,-4.95635 5.76377,-7.96478c1.04277,-2.54384 1.29181,-5.42494 2.51243,-7.89531c1.87032,-3.7853 4.95945,-6.78226 5.48412,-11.08967c0,0 0.35355,-2.47487 2.82843,-2.12132c2.47487,0.35355 2.12132,2.82843 2.12132,2.82843c-0.78155,4.95214 -3.7489,8.25557 -5.94229,12.57933c-1.18488,2.33571 -1.36273,5.19002 -2.38461,7.61197c-1.47472,3.49524 -4.13551,6.2457 -6.47882,9.17484l0.0651,0.67695c0,0 -0.60634,2.42536 -3.0317,1.81902z"/><path d="M263.62312,166.96109c-2.66702,-1.57569 -5.37129,-2.82099 -7.94345,-4.7746c-1.3081,-0.99353 -3.20548,-1.17268 -3.89184,-3.06886c-3.26871,-9.03037 3.97435,-17.7246 8.87014,-20.72571c6.08978,-3.73302 13.87691,-1.51424 19.76073,1.69903c1.04464,0.5705 2.27228,0.68704 3.13167,1.7202c2.4042,2.89033 2.62016,6.10261 3.40687,10.07272c-0.04172,2.15736 0.37799,4.44099 -0.12516,6.47209c-0.92051,3.71587 -3.36812,5.73602 -5.45288,7.70113c-3.88156,3.65879 -8.56444,3.5847 -13.13525,2.81764c-1.00455,0.51248 -2.02021,-0.22404 -2.02021,-0.22404c-0.09892,-0.07173 -0.19797,-0.14252 -0.29715,-0.2124c-0.05425,-0.01101 -0.10846,-0.02205 -0.16263,-0.03311l-0.05453,0.03644c0,0 -1.37599,0 -2.08631,-1.48054zM267.40282,161.41175c5.19048,0.96864 15.02942,1.69743 14.60274,-8.52207c-0.20652,-1.05861 -0.67253,-4.43842 -1.49017,-5.31561c-0.48797,-0.52351 -1.18932,-0.36986 -1.76537,-0.64724c-4.81135,-2.31677 -11.13893,-5.03035 -16.15086,-1.85212c-2.42276,1.53635 -5.03354,4.48825 -6.35253,7.86678c-0.25172,0.64476 -0.61225,1.61567 -0.28461,2.18416c0.3958,0.68676 1.24111,0.17742 1.82137,0.4823c3.28567,1.72635 6.46111,3.59421 9.61942,5.80379z"/><path d="M228.91969,186.10067c2.14373,-1.28624 3.42997,0.85749 3.42997,0.85749l0.19856,1.0906c0.39171,0.32172 0.66973,1.00394 1.17514,0.96516c0.52848,-0.04055 0.71305,-0.78704 1.10813,-1.14037c1.52713,-1.36576 3.26027,-2.48255 4.91714,-3.68763c2.94445,-2.14157 6.07856,-4.34595 8.76407,-6.76217c2.02898,-1.82552 3.6831,-4.25971 5.70195,-6.11091c1.40005,-1.28379 3.06644,-2.31462 4.23749,-3.81023c0,0 1.56174,-1.95217 3.51391,-0.39043c1.95217,1.56174 0.39043,3.51391 0.39043,3.51391c-1.35333,1.66411 -3.15902,2.90236 -4.7404,4.35149c-2.02751,1.85795 -3.68373,4.2945 -5.72446,6.13168c-3.57892,3.22193 -7.75457,5.8309 -11.62014,8.73025c-1.53274,1.14962 -4.28586,3.99821 -6.23743,4.16475c-1.3307,0.11356 -2.48126,-0.98891 -3.72189,-1.48336l-2.24996,-2.99026c0,0 -1.28624,-2.14373 0.85749,-3.42997z"/><path d="M238.75868,195.06336c1.73507,-1.79987 3.53494,-0.0648 3.53494,-0.0648l0.47557,1.00133c0.46195,0.20868 0.90795,0.79503 1.38585,0.62603c0.49971,-0.17671 0.48362,-0.9455 0.77312,-1.38948c1.11903,-1.71616 2.50175,-3.24556 3.78786,-4.84035c2.28557,-2.83413 4.73792,-5.77827 6.70198,-8.81018c1.48391,-2.2907 2.44746,-5.07151 3.9149,-7.38437c1.01766,-1.60394 2.35831,-3.03296 3.09973,-4.78183c0,0 0.99981,-2.29138 3.29118,-1.29157c2.29137,0.99981 1.29157,3.29118 1.29157,3.29118c-0.87356,1.95899 -2.29473,3.62455 -3.44443,5.43533c-1.47405,2.32162 -2.43902,5.10528 -3.93124,7.41028c-2.61697,4.04239 -5.96966,7.64826 -8.94737,11.45381c-1.18069,1.50893 -3.09751,4.97591 -4.93846,5.64466c-1.25527,0.45599 -2.65313,-0.30901 -3.9797,-0.46351l-2.9507,-2.30158c0,0 -1.79987,-1.73507 -0.0648,-3.53494z"/></g></g></svg>