<svg version="1.1" xmlns="http://www.w3.org/2000/svg" xmlns:xlink="http://www.w3.org/1999/xlink" width="48.71687" height="51.54937" viewBox="0,0,48.71687,51.54937"><g transform="translate(-211.79237,-168.22261)"><g data-paper-data="{&quot;isPaintingLayer&quot;:true}" fill="#9966ff" fill-rule="nonzero" stroke="none" stroke-width="0.5" stroke-linecap="butt" stroke-linejoin="miter" stroke-miterlimit="10" stroke-dasharray="" stroke-dashoffset="0" style="mix-blend-mode: normal"><path d="M259.72356,218.9863c-1.76777,1.76777 -3.53553,0 -3.53553,0l-0.87639,-1.05782c-0.31079,-0.66495 -0.62157,-1.3299 -0.93236,-1.99486c-3.25093,-2.54792 -5.04511,-6.2874 -8.20682,-9.02122c-0.59655,-0.51582 -0.98532,-1.33548 -1.7184,-1.62621c-0.62315,-0.24714 -1.33549,0.12874 -2.00554,0.14932c-2.03947,0.06263 -4.08088,0.0095 -6.12129,0c-1.22175,-0.00569 -2.45618,0.14409 -3.66515,-0.03228c-0.6917,-0.10091 -1.24617,-0.82379 -1.94417,-0.78605c-1.55129,0.08387 -2.80498,1.34278 -4.1542,2.11295c-1.40267,0.80068 -2.42311,2.13898 -3.56791,3.27827c-2.42624,2.41456 -5.31581,3.34641 -6.33352,6.77644c0,0 -0.79057,2.37171 -3.16228,1.58114c-2.37171,-0.79057 -1.58114,-3.16228 -1.58114,-3.16228c1.57763,-4.41849 4.43971,-5.61313 7.54141,-8.73084c2.82277,-2.83734 6.69345,-6.45949 11.04985,-6.85137c1.95005,-0.17542 3.8592,0.82432 5.8171,0.81401c2.54281,-0.01339 7.46888,-0.74311 9.82896,0.14932c5.50252,2.08071 7.84255,8.72648 12.11143,12.2054c0.50539,0.96739 1.01077,1.93478 1.51616,2.90218l-0.06021,-0.24165c0,0 1.76777,1.76777 0,3.53553z"/><path d="M238.80339,203.07384c-2.70257,0 -2.70257,-2.26677 -2.70257,-2.26677v-1.48005c0,-3.9638 0.37497,-7.81354 -0.80162,-11.66071c0,0 -0.65547,-2.19909 1.96641,-2.74886c2.62188,-0.54977 3.27736,1.64932 3.27736,1.64932c1.2433,4.26359 0.963,8.38685 0.963,12.76025v1.48005c0,0 0,2.26677 -2.70257,2.26677z"/><path d="M242.27154,186.32496c-0.59636,1.83968 -2.96804,1.5555 -2.96804,1.5555c-3.5133,-0.42795 -7.64256,0.18222 -10.82043,-1.46692c-3.82678,-1.9859 -7.18014,-7.99212 -5.41112,-11.63491c0.42813,-0.88161 4.58674,-4.16084 6.01429,-4.80348c7.13687,-3.21276 19.43862,-2.08232 24.28629,4.0044c1.7796,2.23447 1.34104,4.13495 1.36122,6.63741c-0.28351,1.21267 -0.02987,2.61168 -0.85053,3.63799c-2.69932,3.37574 -7.43732,3.11543 -11.28923,2.10759zM237.51098,183.19785c0.54151,-1.94977 2.99807,-1.65542 2.99807,-1.65542l3.32679,0.40787c2.66181,0.80786 5.44612,1.26936 5.50636,-1.6547c0.00596,-0.51605 0.30525,-2.95235 -0.40339,-3.72299c-4.23966,-4.61064 -13.89181,-4.99558 -18.9207,-1.45756c-0.65572,0.46132 -1.58355,0.75079 -1.95247,1.39851c-1.32548,2.32718 2.96998,6.34214 5.3776,6.50807c1.35217,0.09319 2.71251,0.11427 4.06773,0.17624z"/><path d="M251.21134,205.61726c0,2.26677 -2.70257,2.26677 -2.70257,2.26677l-3.52098,-0.02927c-4.92107,-1.3422 -10.64231,-2.03917 -15.78897,-2.57888c-2.00942,-0.21072 -6.01888,-0.35119 -7.89185,-1.31695c-1.71547,-0.88455 -3.85314,-1.75692 -4.53719,-3.34548c-0.52999,-1.23077 0.94826,-2.4945 1.49463,-3.72024c0.32289,-0.72437 2.82598,-5.50626 3.13231,-5.78154c3.01621,-2.7105 9.17951,-2.62925 13.13499,-3.58459c0,0 2.59859,-0.62273 3.34104,1.55682c0.74245,2.17955 -1.85614,2.80228 -1.85614,2.80228c-2.34995,0.5592 -9.01821,0.65682 -10.68727,2.33564c-0.51996,0.52302 -0.50683,1.29479 -0.80572,1.92795c-0.42202,0.89399 -0.74888,1.83522 -1.3558,2.65092c-0.25358,0.34079 -1.32237,0.3444 -1.15229,0.71994c0.20035,0.44238 1.09383,0.23262 1.63895,0.35466c2.03459,0.45553 4.13548,0.68412 6.22505,0.90314c5.15051,0.53987 11.08179,1.19565 15.97404,2.60132l2.65517,-0.02927c0,0 2.70257,0 2.70257,2.26677z"/><path d="M221.12408,201.87044l2.65516,0.02927c4.89225,-1.40568 10.82353,-2.06144 15.97404,-2.60132c2.08958,-0.21903 4.19046,-0.44761 6.22505,-0.90314c0.54512,-0.12204 1.43861,0.08772 1.63896,-0.35466c0.17007,-0.37554 -0.89872,-0.37914 -1.15229,-0.71994c-0.60692,-0.8157 -0.93378,-1.75693 -1.3558,-2.65092c-0.29889,-0.63316 -0.28575,-1.40494 -0.80572,-1.92796c-1.66905,-1.67882 -8.33732,-1.77644 -10.68727,-2.33564c0,0 -2.59859,-0.62273 -1.85614,-2.80228c0.74245,-2.17955 3.34104,-1.55682 3.34104,-1.55682c3.95549,0.95534 10.11878,0.8741 13.13499,3.5846c0.30634,0.27529 2.80943,5.05717 3.13232,5.78154c0.54636,1.22572 2.02461,2.48945 1.49462,3.72023c-0.68405,1.58857 -2.82171,2.46094 -4.53719,3.34548c-1.87296,0.96575 -5.88242,1.10622 -7.89184,1.31695c-5.14667,0.53972 -10.86791,1.23668 -15.78898,2.57888l-3.52097,0.02927c0,0 -2.70257,0 -2.70257,-2.26677c0,-2.26677 2.70257,-2.26677 2.70257,-2.26677z" data-paper-data="{&quot;index&quot;:null}"/></g></g></svg>