<svg version="1.1" xmlns="http://www.w3.org/2000/svg" xmlns:xlink="http://www.w3.org/1999/xlink" width="73.28379" height="75.28512" viewBox="0,0,73.28379,75.28512"><g transform="translate(-213.79806,-144.48684)"><g data-paper-data="{&quot;isPaintingLayer&quot;:true}" fill="#9966ff" fill-rule="nonzero" stroke="none" stroke-width="0.5" stroke-linecap="butt" stroke-linejoin="miter" stroke-miterlimit="10" stroke-dasharray="" stroke-dashoffset="0" style="mix-blend-mode: normal"><path d="M262.58017,218.98629c-1.76776,1.76776 -3.53554,0 -3.53554,0l-1.45221,-1.89713c-0.49247,-1.74955 -1.15374,-3.45997 -1.96656,-5.08562c-1.12038,-3.89361 -2.79068,-8.69935 -6.363,-11.04305c-3.50515,-2.29964 -8.97907,-0.52212 -12.56078,0.67648c-1.61365,0.54001 -3.40377,0.63157 -4.89335,1.45416c-4.97628,2.74803 -10.29789,8.37029 -13.3976,13.06563c0,0 -1.38675,2.08013 -3.46687,0.69338c-2.08013,-1.38675 -0.69338,-3.46688 -0.69338,-3.46688c6.3278,-9.41368 16.41167,-17.41603 28.0423,-18.24804c4.64498,-0.33228 8.84254,0.00399 12.20024,3.66231c2.91016,3.17072 4.64081,7.33281 5.79231,11.3934c0.88182,1.76362 1.56626,3.63053 2.11431,5.52463l0.18013,-0.2648c0,0 1.76776,1.76777 0,3.53554z"/><path d="M247.96347,200.59277c-2.42536,-0.53137 -1.81902,-2.65683 -1.81902,-2.65683l0.88127,-2.26777c2.00881,-2.20052 4.53055,-4.3435 5.76377,-6.97994c1.04277,-2.22929 1.29181,-4.75415 2.51243,-6.91906c1.87032,-3.31725 4.95945,-5.94364 5.48412,-9.71844c0,0 0.35355,-2.16885 2.82843,-1.85902c2.47487,0.30983 2.12132,2.4787 2.12132,2.4787c-0.78155,4.33981 -3.7489,7.23477 -5.94229,11.0239c-1.18488,2.0469 -1.36273,4.54828 -2.38461,6.67075c-1.47472,3.06305 -4.13551,5.47342 -6.47882,8.04037l0.0651,0.59325c0,0 -0.60634,2.12546 -3.0317,1.5941z"/><path d="M263.62312,171.23264c-2.66702,-1.38086 -5.37129,-2.47218 -7.94345,-4.18422c-1.3081,-0.87068 -3.20548,-1.02768 -3.89184,-2.6894c-3.26871,-7.91377 3.97435,-15.53296 8.87014,-18.16298c6.08978,-3.27143 13.87691,-1.327 19.76073,1.48895c1.04464,0.49996 2.27228,0.60209 3.13167,1.5075c2.4042,2.53294 2.62016,5.34802 3.40687,8.82723c-0.04172,1.8906 0.37799,3.89186 -0.12516,5.67182c-0.92051,3.2564 -3.36812,5.02676 -5.45288,6.74889c-3.88156,3.20638 -8.56444,3.14145 -13.13525,2.46924c-1.00455,0.44911 -2.02021,-0.19634 -2.02021,-0.19634c-0.09892,-0.06286 -0.19797,-0.1249 -0.29715,-0.18614c-0.05425,-0.00965 -0.10846,-0.01932 -0.16263,-0.02902l-0.05453,0.03193c0,0 -1.37599,0 -2.08631,-1.29747zM267.40282,166.36947c5.19048,0.84887 15.02942,1.48754 14.60274,-7.46832c-0.20652,-0.92771 -0.67253,-3.88961 -1.49017,-4.65834c-0.48797,-0.45878 -1.18932,-0.32413 -1.76537,-0.56721c-4.81135,-2.0303 -11.13893,-4.40835 -16.15086,-1.62311c-2.42276,1.34638 -5.03354,3.93328 -6.35253,6.89405c-0.25172,0.56504 -0.61225,1.41589 -0.28461,1.91409c0.3958,0.60184 1.24111,0.15548 1.82137,0.42266c3.28567,1.51289 6.46111,3.14979 9.61942,5.08615z"/><path d="M228.91969,188.00562c2.14373,-1.1272 3.42997,0.75146 3.42997,0.75146l0.19856,0.95575c0.39171,0.28194 0.66973,0.8798 1.17514,0.84582c0.52848,-0.03554 0.71305,-0.68972 1.10813,-0.99936c1.52713,-1.19688 3.26027,-2.17558 4.91714,-3.23166c2.94445,-1.87677 6.07856,-3.80857 8.76407,-5.92603c2.02898,-1.59979 3.6831,-3.733 5.70195,-5.3553c1.40005,-1.12505 3.06644,-2.02842 4.23749,-3.3391c0,0 1.56174,-1.71078 3.51391,-0.34215c1.95217,1.36863 0.39043,3.07942 0.39043,3.07942c-1.35333,1.45834 -3.15902,2.54348 -4.7404,3.81343c-2.02751,1.62821 -3.68373,3.76349 -5.72446,5.3735c-3.57892,2.82354 -7.75457,5.10991 -11.62014,7.65076c-1.53274,1.00747 -4.28586,3.50383 -6.23743,3.64978c-1.3307,0.09952 -2.48126,-0.86663 -3.72189,-1.29994l-2.24996,-2.62052c0,0 -1.28624,-1.87866 0.85749,-3.00586z"/><path d="M238.75868,195.86007c1.73507,-1.57732 3.53494,-0.05679 3.53494,-0.05679l0.47557,0.87752c0.46195,0.18288 0.90795,0.69672 1.38585,0.54862c0.49971,-0.15486 0.48362,-0.82859 0.77312,-1.21767c1.11903,-1.50396 2.50175,-2.84425 3.78786,-4.24184c2.28557,-2.48369 4.73792,-5.06379 6.70198,-7.7208c1.48391,-2.00746 2.44746,-4.44442 3.9149,-6.47129c1.01766,-1.40561 2.35831,-2.65794 3.09973,-4.19056c0,0 0.99981,-2.00805 3.29118,-1.13187c2.29137,0.87618 1.29157,2.88423 1.29157,2.88423c-0.87356,1.71676 -2.29473,3.17638 -3.44443,4.76325c-1.47405,2.03455 -2.43902,4.47401 -3.93124,6.494c-2.61697,3.54255 -5.96966,6.70255 -8.94737,10.03755c-1.18069,1.32235 -3.09751,4.36064 -4.93846,4.9467c-1.25527,0.39961 -2.65313,-0.2708 -3.9797,-0.4062l-2.9507,-2.01699c0,0 -1.79987,-1.52053 -0.0648,-3.09785z"/></g></g></svg>