<svg version="1.1" xmlns="http://www.w3.org/2000/svg" xmlns:xlink="http://www.w3.org/1999/xlink" width="656.61331" height="124.35772" viewBox="0,0,656.61331,124.35772"><g transform="translate(168.30666,-50.47817)"><g data-paper-data="{&quot;isPaintingLayer&quot;:true}" fill-rule="nonzero" stroke-linecap="butt" stroke-linejoin="miter" stroke-miterlimit="10" stroke-dasharray="" stroke-dashoffset="0" style="mix-blend-mode: normal"><path d="M128.87499,147.9625v-89h55v89z" fill="#99ffff" stroke="none" stroke-width="0"/><path d="M-165.28868,50.47818h162.67576v98.09079l-162.35312,-5.07366z" fill="#99ffff" stroke="#ccffff" stroke-width="0"/><path d="M-14.78996,134.16871c4.07671,-0.18085 8.66526,1.43608 11.16305,4.58221c2.65964,3.33478 1.93087,8.30843 1.70614,12.52796c0.10968,4.34189 0.55913,9.31506 -2.04737,12.84482c-2.4081,3.26946 -6.79434,5.65562 -10.82182,5.63027c-5.99148,-0.03753 -12.81801,-1.99374 -17.23009,-5.21446c-4.41208,-3.2212 -7.14337,-7.66935 -7.14337,-12.57817c0,-4.90882 2.73129,-9.35697 7.14337,-12.57817c4.41209,-3.22072 11.243,-4.95367 17.23009,-5.21446z" fill="#00cc44" stroke="#00cc44" stroke-width="2.88236"/><path d="M-138.2401,130.837c5.21503,0 9.9405,1.30204 13.36211,3.40536c3.42162,2.10365 5.53976,5.00856 5.53976,8.21431c0,3.20576 -2.11814,6.11067 -5.53976,8.21431c-3.42162,2.10333 -8.14709,3.40536 -13.36211,3.40536c-5.21502,0 -9.9405,-1.30204 -13.36211,-3.40536c-3.42162,-2.10365 -5.53976,-5.00856 -5.53976,-8.21431c0,-3.20576 2.11815,-6.11067 5.53976,-8.21431c3.42162,-2.10333 8.14708,-3.40536 13.36211,-3.40536z" fill="#00cc44" stroke="#00cc44" stroke-width="2.06637"/><path d="M-99.85834,128.23253c6.72464,0 12.81801,1.99374 17.23009,5.21446c4.41209,3.2212 7.14338,7.66935 7.14338,12.57817c0,4.90882 -2.73129,9.35697 -7.14338,12.57817c-4.41209,3.22072 -10.50545,5.21446 -17.23009,5.21446c-6.72464,0 -12.81801,-1.99374 -17.2301,-5.21446c-4.41209,-3.2212 -7.14338,-7.66935 -7.14338,-12.57817c0,-4.90882 2.73129,-9.35697 7.14338,-12.57817c4.41209,-3.22072 10.50546,-5.21446 17.2301,-5.21446z" fill="#00cc44" stroke="#00cc44" stroke-width="2.88236"/><path d="M-56.5631,130.93848c6.72463,0 12.81801,1.99374 17.23009,5.21446c4.41208,3.2212 7.14338,7.66936 7.14338,12.57818c0,4.90882 -2.7313,9.35697 -7.14338,12.57817c-4.41208,3.22072 -10.50545,5.21446 -17.23009,5.21446c-6.72464,0 -12.818,-1.99374 -17.23009,-5.21446c-4.41209,-3.2212 -7.14338,-7.66935 -7.14338,-12.57817c0,-4.90882 2.73129,-9.35698 7.14338,-12.57818c4.41209,-3.22072 10.50545,-5.21446 17.23009,-5.21446z" fill="#00cc44" stroke="#00cc44" stroke-width="2.88236"/><path d="M-165.98272,133.34697c2.01094,-1.08684 5.47908,3.491 7.64048,6.49333c1.62875,2.2574 3.47217,5.06873 3.47217,8.21431c0,3.14559 -1.36384,6.84829 -3.47217,8.21431l-6.96519,-1.27434l-0.33172,-11.8266c-0.10876,-3.93828 -1.98108,-9.24385 -0.34357,-9.82102z" fill="#00cc44" stroke="#00cc44" stroke-width="1.65924"/><path d="M-164.6291,144.84827l158.97472,-1.01473l2.70596,20.29465l-162.35716,1.69122z" fill="#00cc44" stroke="#00cc44" stroke-width="2"/><path d="M-166.99259,165.01327h164.03993v8.43356h-164.03993z" fill="#663b00" stroke="#663b00" stroke-width="2.62812"/><path d="M159.71604,143.4953l-162.35312,5.07366v-98.09079h162.67576z" data-paper-data="{&quot;index&quot;:null}" fill="#99ffff" stroke="#ccffff" stroke-width="0"/><path d="M9.53997,134.16871c5.9871,0.2608 12.81801,1.99374 17.23009,5.21446c4.41209,3.22119 7.14337,7.66935 7.14337,12.57817c0,4.90882 -2.73129,9.35697 -7.14337,12.57817c-4.41209,3.22072 -11.23861,5.17693 -17.23009,5.21446c-4.02747,0.02535 -8.41372,-2.36081 -10.82182,-5.63027c-2.6065,-3.52976 -2.15705,-8.50293 -2.04737,-12.84482c-0.22472,-4.21954 -0.95349,-9.19318 1.70614,-12.52796c2.4978,-3.14613 7.08634,-4.76306 11.16305,-4.58221z" data-paper-data="{&quot;index&quot;:null}" fill="#00cc44" stroke="#00cc44" stroke-width="2.88236"/><path d="M132.99009,130.83701c5.21503,0 9.9405,1.30204 13.36211,3.40536c3.42162,2.10365 5.53976,5.00856 5.53976,8.21431c0,3.20576 -2.11814,6.11067 -5.53976,8.21431c-3.42161,2.10332 -8.14709,3.40536 -13.36211,3.40536c-5.21502,0 -9.9405,-1.30203 -13.36211,-3.40536c-3.42162,-2.10364 -5.53976,-5.00856 -5.53976,-8.21431c0,-3.20576 2.11814,-6.11067 5.53976,-8.21431c3.42162,-2.10333 8.14708,-3.40536 13.36211,-3.40536z" data-paper-data="{&quot;index&quot;:null}" fill="#00cc44" stroke="#00cc44" stroke-width="2.06637"/><path d="M111.83844,133.44699c4.41209,3.2212 7.14338,7.66935 7.14338,12.57817c0,4.90882 -2.73129,9.35697 -7.14338,12.57817c-4.41209,3.22072 -10.50546,5.21446 -17.2301,5.21446c-6.72464,0 -12.818,-1.99374 -17.23009,-5.21446c-4.41209,-3.2212 -7.14338,-7.66935 -7.14338,-12.57817c0,-4.90882 2.73129,-9.35697 7.14338,-12.57817c4.41209,-3.22072 10.50545,-5.21446 17.23009,-5.21446c6.72464,0 12.81801,1.99374 17.2301,5.21446z" data-paper-data="{&quot;index&quot;:null}" fill="#00cc44" stroke="#00cc44" stroke-width="2.88236"/><path d="M68.5432,136.15294c4.41209,3.2212 7.14338,7.66936 7.14338,12.57818c0,4.90882 -2.73129,9.35697 -7.14338,12.57817c-4.41209,3.22072 -10.50545,5.21446 -17.23009,5.21446c-6.72463,0 -12.818,-1.99374 -17.23009,-5.21446c-4.41209,-3.2212 -7.14338,-7.66935 -7.14338,-12.57817c0,-4.90882 2.7313,-9.35698 7.14338,-12.57818c4.41208,-3.22072 10.50545,-5.21446 17.23009,-5.21446c6.72464,0 12.81801,1.99374 17.23009,5.21446z" data-paper-data="{&quot;index&quot;:null}" fill="#00cc44" stroke="#00cc44" stroke-width="2.88236"/><path d="M160.73272,133.34698c1.63752,0.57717 -0.23481,5.88273 -0.34357,9.82101l-0.33172,11.8266l-6.96519,1.27434c-2.10833,-1.36603 -3.47217,-5.06873 -3.47217,-8.21431c0,-3.14559 1.84342,-5.95692 3.47217,-8.21431c2.1614,-3.00233 5.62954,-7.58017 7.64048,-6.49333z" data-paper-data="{&quot;index&quot;:null}" fill="#00cc44" stroke="#00cc44" stroke-width="1.65924"/><path d="M160.05559,165.81941l-162.35716,-1.69122l2.70596,-20.29465l158.97472,1.01473z" data-paper-data="{&quot;index&quot;:null}" fill="#00cc44" stroke="#00cc44" stroke-width="2"/><path d="M161.7426,173.44683h-164.03993v-8.43356h164.03993z" data-paper-data="{&quot;index&quot;:null}" fill="#663b00" stroke="#663b00" stroke-width="2.62812"/><path d="M484.96604,143.5703l-162.35312,5.07367v-98.09079h162.67575z" data-paper-data="{&quot;index&quot;:null}" fill="#99ffff" stroke="#ccffff" stroke-width="0"/><path d="M334.78997,134.24372c5.9871,0.2608 12.81801,1.99374 17.2301,5.21446c4.41209,3.22119 7.14337,7.66934 7.14337,12.57816c0,4.90882 -2.73129,9.35698 -7.14337,12.57818c-4.41209,3.22072 -11.23861,5.17693 -17.2301,5.21446c-4.02747,0.02535 -8.41372,-2.36081 -10.82182,-5.63027c-2.6065,-3.52976 -2.15706,-8.50293 -2.04737,-12.84482c-0.22472,-4.21954 -0.95349,-9.19318 1.70614,-12.52796c2.49779,-3.14613 7.08634,-4.76307 11.16305,-4.58222z" data-paper-data="{&quot;index&quot;:null}" fill="#00cc44" stroke="#00cc44" stroke-width="2.88236"/><path d="M458.24009,130.912c5.21503,0 9.9405,1.30204 13.36212,3.40536c3.42161,2.10365 5.53976,5.00856 5.53976,8.21431c0,3.20576 -2.11815,6.11067 -5.53976,8.21431c-3.42161,2.10332 -8.14709,3.40536 -13.36211,3.40536c-5.21503,0 -9.94049,-1.30203 -13.36211,-3.40536c-3.42161,-2.10364 -5.53976,-5.00856 -5.53976,-8.21431c0,-3.20576 2.11815,-6.11067 5.53976,-8.21431c3.42161,-2.10333 8.14708,-3.40536 13.36211,-3.40536z" data-paper-data="{&quot;index&quot;:null}" fill="#00cc44" stroke="#00cc44" stroke-width="2.06637"/><path d="M437.08844,133.52199c4.41209,3.2212 7.14338,7.66936 7.14338,12.57818c0,4.90882 -2.73129,9.35697 -7.14338,12.57817c-4.41208,3.22072 -10.50545,5.21446 -17.2301,5.21446c-6.72463,0 -12.818,-1.99374 -17.23009,-5.21446c-4.41209,-3.2212 -7.14338,-7.66935 -7.14338,-12.57817c0,-4.90882 2.7313,-9.35698 7.14338,-12.57818c4.41208,-3.22072 10.50545,-5.21446 17.23009,-5.21446c6.72464,0 12.81801,1.99374 17.2301,5.21446z" data-paper-data="{&quot;index&quot;:null}" fill="#00cc44" stroke="#00cc44" stroke-width="2.88236"/><path d="M393.7932,136.22794c4.41208,3.2212 7.14337,7.66935 7.14337,12.57817c0,4.90882 -2.73129,9.35697 -7.14337,12.57817c-4.41209,3.22072 -10.50545,5.21446 -17.2301,5.21446c-6.72463,0 -12.81801,-1.99374 -17.23009,-5.21446c-4.41208,-3.2212 -7.14338,-7.66935 -7.14338,-12.57817c0,-4.90882 2.73129,-9.35697 7.14338,-12.57817c4.41208,-3.22072 10.50546,-5.21446 17.23009,-5.21446c6.72464,0 12.81801,1.99374 17.2301,5.21446z" data-paper-data="{&quot;index&quot;:null}" fill="#00cc44" stroke="#00cc44" stroke-width="2.88236"/><path d="M485.98272,133.42197c1.63752,0.57717 -0.23481,5.88273 -0.34357,9.82101l-0.33172,11.8266l-6.96519,1.27434c-2.10832,-1.36603 -3.47217,-5.06873 -3.47217,-8.21431c0,-3.14559 1.84342,-5.95692 3.47217,-8.21431c2.1614,-3.00233 5.62953,-7.58017 7.64047,-6.49333z" data-paper-data="{&quot;index&quot;:null}" fill="#00cc44" stroke="#00cc44" stroke-width="1.65924"/><path d="M485.30559,165.89441l-162.35716,-1.69122l2.70596,-20.29465l158.97472,1.01473z" data-paper-data="{&quot;index&quot;:null}" fill="#00cc44" stroke="#00cc44" stroke-width="2"/><path d="M486.9926,173.52183h-164.03994v-8.43356h164.03994z" data-paper-data="{&quot;index&quot;:null}" fill="#663b00" stroke="#663b00" stroke-width="2.62812"/><path d="M159.96131,50.55318h162.67575v98.09079l-162.35312,-5.07367c0,0 -0.04841,-13.95918 -0.08336,-24.03503c-0.0592,-17.06975 -0.23927,-68.9821 -0.23927,-68.9821z" data-paper-data="{&quot;index&quot;:null}" fill="#99ffff" stroke="#ccffff" stroke-width="0"/><path d="M310.46004,134.24371c4.07671,-0.18085 8.66526,1.43608 11.16305,4.58222c2.65963,3.33478 1.93087,8.30843 1.70614,12.52796c0.10968,4.34189 0.55912,9.31506 -2.04737,12.84482c-2.4081,3.26946 -6.79435,5.65562 -10.82182,5.63027c-5.99149,-0.03753 -12.81801,-1.99374 -17.2301,-5.21446c-4.41208,-3.2212 -7.14337,-7.66936 -7.14337,-12.57818c0,-4.90882 2.73129,-9.35697 7.14337,-12.57816c4.41208,-3.22072 11.243,-4.95367 17.2301,-5.21446z" data-paper-data="{&quot;index&quot;:null}" fill="#00cc44" stroke="#00cc44" stroke-width="2.88236"/><path d="M187.0099,130.912c5.21503,0 9.94049,1.30204 13.36211,3.40537c3.42162,2.10365 5.53976,5.00856 5.53976,8.21431c0,3.20576 -2.11814,6.11067 -5.53976,8.21431c-3.42162,2.10333 -8.14709,3.40536 -13.36211,3.40536c-5.21502,0 -9.9405,-1.30204 -13.36211,-3.40536c-3.42162,-2.10365 -5.53976,-5.00856 -5.53976,-8.21431c0,-3.20576 2.11815,-6.11067 5.53976,-8.21431c3.42162,-2.10333 8.14708,-3.40537 13.36211,-3.40537z" data-paper-data="{&quot;index&quot;:null}" fill="#00cc44" stroke="#00cc44" stroke-width="2.06637"/><path d="M225.39166,128.30753c6.72464,0 12.81801,1.99374 17.23009,5.21446c4.41208,3.2212 7.14338,7.66936 7.14338,12.57818c0,4.90882 -2.73129,9.35697 -7.14338,12.57817c-4.41208,3.22072 -10.50546,5.21446 -17.23009,5.21446c-6.72464,0 -12.81801,-1.99374 -17.23009,-5.21446c-4.41209,-3.2212 -7.14338,-7.66935 -7.14338,-12.57817c0,-4.90882 2.73129,-9.35698 7.14338,-12.57818c4.41209,-3.22072 10.50545,-5.21446 17.23009,-5.21446z" data-paper-data="{&quot;index&quot;:null}" fill="#00cc44" stroke="#00cc44" stroke-width="2.88236"/><path d="M268.6869,131.01348c6.72463,0 12.81801,1.99374 17.23009,5.21446c4.41208,3.2212 7.14338,7.66935 7.14338,12.57817c0,4.90882 -2.73129,9.35697 -7.14338,12.57817c-4.41208,3.22072 -10.50546,5.21446 -17.23009,5.21446c-6.72464,0 -12.81801,-1.99374 -17.2301,-5.21446c-4.41208,-3.2212 -7.14337,-7.66935 -7.14337,-12.57817c0,-4.90882 2.73129,-9.35697 7.14337,-12.57817c4.41208,-3.22072 10.50545,-5.21446 17.2301,-5.21446z" data-paper-data="{&quot;index&quot;:null}" fill="#00cc44" stroke="#00cc44" stroke-width="2.88236"/><path d="M159.26728,133.42197c2.01094,-1.08684 5.47908,3.491 7.64048,6.49333c1.62875,2.2574 3.47217,5.06873 3.47217,8.21431c0,3.14559 -1.36384,6.84829 -3.47217,8.21431l-6.96519,-1.27434l-0.33172,-11.8266c-0.10876,-3.93828 -1.98108,-9.24385 -0.34357,-9.82101z" data-paper-data="{&quot;index&quot;:null}" fill="#00cc44" stroke="#00cc44" stroke-width="1.65924"/><path d="M160.62089,144.92328l158.97472,-1.01473l2.70596,20.29465l-162.35716,1.69122z" data-paper-data="{&quot;index&quot;:null}" fill="#00cc44" stroke="#00cc44" stroke-width="2"/><path d="M158.25741,165.08827h164.03994v8.43356h-164.03994z" data-paper-data="{&quot;index&quot;:null}" fill="#663b00" stroke="#663b00" stroke-width="2.62812"/></g></g></svg>