<svg version="1.1" xmlns="http://www.w3.org/2000/svg" xmlns:xlink="http://www.w3.org/1999/xlink" width="660.36331" height="247.35041" viewBox="0,0,660.36331,247.35041"><g transform="translate(169.92928,11.01816)"><g data-paper-data="{&quot;isPaintingLayer&quot;:true}" fill-rule="nonzero" stroke-linecap="butt" stroke-linejoin="miter" stroke-miterlimit="10" stroke-dasharray="" stroke-dashoffset="0" style="mix-blend-mode: normal"><path d="M-165.20602,-11.01815h325.48255v196.26059l-324.83702,-10.15141z" fill="#99ffff" stroke="#ccffff" stroke-width="0"/><path d="M135.91265,156.43033c8.1567,-0.36185 17.33749,2.87332 22.33509,9.16812c5.32141,6.67225 3.86329,16.62355 3.41366,25.06602c0.21945,8.68728 1.1187,18.63761 -4.0964,25.69998c-4.81814,6.54155 -13.59416,11.3158 -21.65235,11.26508c-11.9878,-0.0751 -25.64634,-3.9891 -34.47407,-10.43312c-8.82772,-6.44499 -14.29251,-15.34489 -14.29251,-25.16648c0,-9.82159 5.46478,-18.72149 14.29251,-25.16647c8.82772,-6.44402 22.49505,-9.91132 34.47407,-10.43312z" fill="#00cc44" stroke="#00cc44" stroke-width="2.88236"/><path d="M-111.08707,149.76423c10.43426,0 19.889,2.60513 26.73499,6.81347c6.84599,4.20898 11.08398,10.02115 11.08398,16.43525c0,6.4141 -4.23799,12.22628 -11.08398,16.43525c-6.84599,4.20834 -16.30074,6.81346 -26.73499,6.81346c-10.43425,0 -19.889,-2.60513 -26.73498,-6.81346c-6.84599,-4.20898 -11.08398,-10.02115 -11.08398,-16.43525c0,-6.4141 4.238,-12.22627 11.08399,-16.43525c6.84599,-4.20834 16.30073,-6.81347 26.73499,-6.81347z" fill="#00cc44" stroke="#00cc44" stroke-width="2.06637"/><path d="M-34.29264,144.55318c13.45469,0 25.64634,3.9891 34.47406,10.43312c8.82772,6.44499 14.29251,15.34489 14.29251,25.16648c0,9.82159 -5.46478,18.72149 -14.29251,25.16648c-8.82772,6.44402 -21.01937,10.43312 -34.47406,10.43312c-13.4547,0 -25.64635,-3.9891 -34.47407,-10.43312c-8.82773,-6.44499 -14.29251,-15.34489 -14.29251,-25.16648c0,-9.82159 5.46478,-18.72149 14.29251,-25.16648c8.82773,-6.44402 21.01937,-10.43312 34.47407,-10.43312z" fill="#00cc44" stroke="#00cc44" stroke-width="2.88236"/><path d="M52.33272,149.96727c13.45469,0 25.64634,3.9891 34.47406,10.43312c8.82772,6.44499 14.29251,15.34489 14.29251,25.16648c0,9.82159 -5.46479,18.72149 -14.29251,25.16648c-8.82772,6.44402 -21.01937,10.43312 -34.47406,10.43312c-13.4547,0 -25.64634,-3.9891 -34.47407,-10.43312c-8.82772,-6.44499 -14.29251,-15.34489 -14.29251,-25.16648c0,-9.82159 5.46479,-18.72149 14.29251,-25.16648c8.82772,-6.44402 21.01937,-10.43312 34.47407,-10.43312z" fill="#00cc44" stroke="#00cc44" stroke-width="2.88236"/><path d="M-166.59465,154.78618c4.0235,-2.17455 10.96257,6.98481 15.28711,12.99189c3.25881,4.51662 6.94714,10.14154 6.94714,16.43525c0,6.29371 -2.72879,13.70209 -6.94714,16.43525l-13.93599,-2.54971l-0.66371,-23.66273c-0.2176,-7.87973 -3.96376,-18.49515 -0.68741,-19.64994z" fill="#00cc44" stroke="#00cc44" stroke-width="1.65924"/><path d="M-163.88633,177.79806l318.0775,-2.03028l5.41409,40.60564l-324.8451,3.3838z" fill="#00cc44" stroke="#00cc44" stroke-width="2"/><path d="M-168.61522,218.1443h328.21201v16.8739h-328.21201z" fill="#663b00" stroke="#663b00" stroke-width="2.62812"/><path d="M485.06524,175.09103l-324.83702,10.15141v-196.26059h325.48255z" data-paper-data="{&quot;index&quot;:null}" fill="#99ffff" stroke="#ccffff" stroke-width="0"/><path d="M184.5921,156.43034c11.97902,0.5218 25.64635,3.9891 34.47407,10.43312c8.82773,6.44498 14.29251,15.34488 14.29251,25.16647c0,9.82159 -5.46479,18.72149 -14.29251,25.16648c-8.82773,6.44402 -22.48627,10.35802 -34.47407,10.43312c-8.05819,0.05072 -16.83421,-4.72353 -21.65235,-11.26508c-5.2151,-7.06237 -4.31585,-17.0127 -4.0964,-25.69998c-0.44963,-8.44247 -1.90775,-18.39377 3.41366,-25.06602c4.9976,-6.2948 14.17839,-9.52997 22.33509,-9.16812z" data-paper-data="{&quot;index&quot;:null}" fill="#00cc44" stroke="#00cc44" stroke-width="2.88236"/><path d="M431.5918,149.76424c10.43426,0 19.889,2.60513 26.73499,6.81347c6.84599,4.20898 11.08399,10.02115 11.08399,16.43525c0,6.4141 -4.23799,12.22627 -11.08398,16.43525c-6.84598,4.20833 -16.30073,6.81346 -26.73498,6.81346c-10.43425,0 -19.889,-2.60512 -26.73499,-6.81346c-6.84599,-4.20897 -11.08398,-10.02115 -11.08398,-16.43525c0,-6.4141 4.23799,-12.22627 11.08398,-16.43525c6.84599,-4.20834 16.30073,-6.81347 26.73499,-6.81347z" data-paper-data="{&quot;index&quot;:null}" fill="#00cc44" stroke="#00cc44" stroke-width="2.06637"/><path d="M389.27146,154.9863c8.82773,6.44499 14.29251,15.34489 14.29251,25.16648c0,9.82159 -5.46478,18.72149 -14.29251,25.16648c-8.82772,6.44402 -21.01937,10.43312 -34.47407,10.43312c-13.45469,0 -25.64634,-3.9891 -34.47406,-10.43312c-8.82773,-6.44499 -14.29251,-15.34489 -14.29251,-25.16648c0,-9.82159 5.46479,-18.72149 14.29251,-25.16648c8.82772,-6.44402 21.01937,-10.43312 34.47406,-10.43312c13.4547,0 25.64634,3.9891 34.47407,10.43312z" data-paper-data="{&quot;index&quot;:null}" fill="#00cc44" stroke="#00cc44" stroke-width="2.88236"/><path d="M302.6461,160.40039c8.82772,6.44499 14.29251,15.34489 14.29251,25.16648c0,9.82159 -5.46479,18.72149 -14.29251,25.16648c-8.82773,6.44402 -21.01937,10.43312 -34.47407,10.43312c-13.45469,0 -25.64634,-3.9891 -34.47406,-10.43312c-8.82772,-6.44499 -14.29251,-15.34489 -14.29251,-25.16648c0,-9.82159 5.46479,-18.72149 14.29251,-25.16648c8.82772,-6.44402 21.01937,-10.43312 34.47406,-10.43312c13.4547,0 25.64635,3.9891 34.47407,10.43312z" data-paper-data="{&quot;index&quot;:null}" fill="#00cc44" stroke="#00cc44" stroke-width="2.88236"/><path d="M487.0994,154.7862c3.27635,1.15479 -0.46981,11.77021 -0.68741,19.64994l-0.66371,23.66273l-13.93599,2.54971c-4.21835,-2.73316 -6.94714,-10.14154 -6.94714,-16.43525c0,-6.29371 3.68833,-11.91863 6.94714,-16.43525c4.32454,-6.00708 11.26361,-15.16644 15.28711,-12.99189z" data-paper-data="{&quot;index&quot;:null}" fill="#00cc44" stroke="#00cc44" stroke-width="1.65924"/><path d="M485.74459,219.75723l-324.8451,-3.3838l5.41409,-40.60564l318.0775,2.03028z" data-paper-data="{&quot;index&quot;:null}" fill="#00cc44" stroke="#00cc44" stroke-width="2"/><path d="M489.11997,235.0182h-328.21201v-16.8739h328.21201z" data-paper-data="{&quot;index&quot;:null}" fill="#663b00" stroke="#663b00" stroke-width="2.62812"/></g></g></svg>